<svg xmlns="http://www.w3.org/2000/svg" width="1200" height="820" viewBox="0 0 1200 820" role="img" aria-labelledby="title desc">
  <title id="title">Study abroad article cover illustration</title>
  <desc id="desc">Editorial article cover with documents, passport, and campus cards.</desc>
  <rect width="1200" height="820" rx="54" fill="#f7fbff"/>
  <circle cx="1000" cy="130" r="150" fill="#df1f83" opacity=".12"/>
  <rect x="158" y="120" width="420" height="560" rx="34" fill="#fff" stroke="#dbe7f3" stroke-width="4"/>
  <rect x="226" y="196" width="284" height="28" rx="14" fill="#23a9d8" opacity=".78"/>
  <rect x="226" y="260" width="260" height="16" rx="8" fill="#dbe7f3"/>
  <rect x="226" y="304" width="300" height="16" rx="8" fill="#dbe7f3"/>
  <rect x="226" y="348" width="220" height="16" rx="8" fill="#dbe7f3"/>
  <rect x="226" y="430" width="170" height="54" rx="27" fill="#df1f83" opacity=".82"/>
  <rect x="620" y="176" width="360" height="228" rx="32" fill="#fff" stroke="#dbe7f3" stroke-width="4"/>
  <path d="M668 338 L740 260 L812 324 L870 238 L940 338Z" fill="#23a9d8" opacity=".65"/>
  <circle cx="710" cy="234" r="28" fill="#df1f83" opacity=".76"/>
  <rect x="650" y="464" width="300" height="210" rx="30" fill="#fff0f7" stroke="#fff" stroke-width="4"/>
  <path d="M704 532 H894" stroke="#147da9" stroke-width="18" stroke-linecap="round"/>
  <path d="M704 590 H848" stroke="#df1f83" stroke-width="14" stroke-linecap="round" opacity=".52"/>
</svg>
